<?xml version="1.0" encoding="utf-8"?>
<!-- Generator: Adobe Illustrator 26.3.1, SVG Export Plug-In . SVG Version: 6.00 Build 0)  -->
<svg version="1.1" id="ic_nav_avios_logo" xmlns="http://www.w3.org/2000/svg" xmlns:xlink="http://www.w3.org/1999/xlink" x="0px"
	 y="0px" viewBox="0 0 24 24" style="enable-background:new 0 0 24 24;" xml:space="preserve">
<style type="text/css">
	.st0{fill:#1F212B;fill-opacity:0;}
	.st1{fill:#1F212B;}
</style>
<rect id="Container" class="st0" width="24" height="24"/>
<path id="Icon" class="st1" d="M18.9,23c-5.2,0-11.3-3.8-15.3-7.4l0,0c-1.9-1.7-2.7-3.1-2.6-4.4c0.1-1.8,1.7-3,3.8-4.5
	C5.2,6.4,5.6,6,6,5.7l0,0C9.7,3,14,1.4,18.5,1h0c0.6,0,1.2,0.2,1.7,0.7c2.1,2.1,2.8,9,2.8,11.1v0c0,0.3,0,0.6-0.1,1
	c-0.2,4.1-0.6,8.5-2.9,9.1l0,0h0C19.6,23,19.2,23,18.9,23z M4.3,14.9c2.1,1.9,4.4,3.5,6.8,4.8c2.4,1.4,5,2.2,7.8,2.3
	c0.3,0,0.6,0,0.9,0c0.7-0.2,1.3-1.3,1.6-3.1c0.3-1.7,0.5-3.4,0.5-5.1c0-0.4,0-0.7,0.1-1c0-2.3-0.7-8.6-2.5-10.4
	C19.3,2.2,18.9,2,18.6,2c-4.3,0.4-8.4,1.9-12,4.5c-0.4,0.3-0.9,0.7-1.3,1C3.5,8.9,2,9.9,2,11.2C1.9,12.2,2.7,13.4,4.3,14.9z"/>
</svg>
