<svg xmlns="http://www.w3.org/2000/svg" width="33" height="32" viewBox="0 0 33 32">
  <g id="ic-badge-global-rewards" transform="translate(0 -0.5)">
    <rect id="Rectangle_1943" data-name="Rectangle 1943" width="33" height="32" transform="translate(0 0.5)" fill="#fff" opacity="0"/>
    <path id="Path_4608" data-name="Path 4608" d="M24.755,9.869a.339.339,0,0,0,.107.362L27.8,12.673l-.9,3.859a.339.339,0,0,0,.33.416.334.334,0,0,0,.181-.053l3.232-2.042L34.039,16.9a.339.339,0,0,0,.5-.374l-.948-3.7,3-2.594a.339.339,0,0,0-.2-.594l-3.816-.246L31.037,5.736a.339.339,0,0,0-.626.007L29,9.3l-3.947.339A.339.339,0,0,0,24.755,9.869Zm4.508.083a.339.339,0,0,0,.286-.213l1.186-2.979,1.3,3.082a.339.339,0,0,0,.29.207l3.2.2L33,12.442a.339.339,0,0,0-.106.339l.792,3.107-2.864-1.729a.339.339,0,0,0-.355,0l-2.708,1.714.758-3.258a.339.339,0,0,0-.113-.339l-2.468-2.043Z" transform="translate(-7.989 -1.786)" fill="#1f212b"/>
    <path id="Path_4609" data-name="Path 4609" d="M31.7,21.532a2.234,2.234,0,0,1-.444-.7c-.007-.019-.012-.035-.018-.053a14.712,14.712,0,0,0,.022-7.565A8.275,8.275,0,0,0,20.743,2.651,14.688,14.688,0,0,0,7.335,5.7a.325.325,0,0,0-.1.089,14.813,14.813,0,0,0-4.672,7.692.331.331,0,0,0-.03.135,14.8,14.8,0,0,0,28.336,8.346l.5.129a.339.339,0,0,0,.332-.559Zm-7.4,3.942c-.1.047-.2.091-.31.135a.348.348,0,0,0-.121.085,4.116,4.116,0,0,0-.271.339,2.055,2.055,0,0,1-.42.456,1.9,1.9,0,0,1-.94.428c-.2-.051-.255-.158-.37-.563a4.162,4.162,0,0,0-.146-.449l-.063-.152a2.072,2.072,0,0,1-.249-1.206L21.52,24a.339.339,0,0,0,.24-.106,2.905,2.905,0,0,0,.578-.917,8.166,8.166,0,0,0,.5-2.106,7.21,7.21,0,0,1,.515-2.058.165.165,0,0,0,.005-.025c.022,0,.045,0,.068,0s.045,0,.068,0a.042.042,0,0,0,.005.025,7.209,7.209,0,0,1,.515,2.058,8.193,8.193,0,0,0,.5,2.106,2.907,2.907,0,0,0,.579.917.339.339,0,0,0,.11.078.875.875,0,0,1-.1.193.783.783,0,0,1-.236.185,1.2,1.2,0,0,0-.523.517.339.339,0,0,0-.029.186,1.083,1.083,0,0,1-.031.421Zm-6.66-9.053a8.271,8.271,0,0,0,5.023,2.33,8.158,8.158,0,0,0-.488,2.028,7.534,7.534,0,0,1-.463,1.949,2.159,2.159,0,0,1-.2.389l-2.038-2.534a.339.339,0,0,0-.348-.116l-2.946.752c.021-.046.041-.093.06-.141a6.756,6.756,0,0,0,.459-1.973,5.841,5.841,0,0,1,.463-1.888,4.931,4.931,0,0,1,.481-.8Zm7.715,6.7a2.2,2.2,0,0,1-.2-.389,7.534,7.534,0,0,1-.463-1.949,8.158,8.158,0,0,0-.488-2.028,8.266,8.266,0,0,0,5.023-2.33,5,5,0,0,1,.479.8,5.855,5.855,0,0,1,.462,1.888,6.757,6.757,0,0,0,.459,1.966c.019.048.039.095.06.141l-2.944-.75a.339.339,0,0,0-.348.116Zm5.713-6.175a13.653,13.653,0,0,1-.2,2.3c-.008-.068-.017-.139-.025-.21a6.5,6.5,0,0,0-.512-2.077,6.094,6.094,0,0,0-.63-1.041,8.339,8.339,0,0,0,1.1-1.625,13.778,13.778,0,0,1,.269,2.656Zm-.016-6.451a7.619,7.619,0,1,1-7.618-7.618,7.619,7.619,0,0,1,7.618,7.618ZM13.2,4.767l-.077-.041a2.844,2.844,0,0,0,.571-.2,1.11,1.11,0,0,1,.767-.165c.207.009.493.023.948,0a6.916,6.916,0,0,0,1.234-.109c.13-.024.282-.053.6-.088.513-.058.59-.008.706.068l.037.023c-.068.059-.135.119-.2.18a.917.917,0,0,0-.548.406.745.745,0,0,0-.082.245q-.262.3-.494.631l-.618.068a.334.334,0,0,0-.142.049,2.67,2.67,0,0,1-.488.251,1.745,1.745,0,0,1-.358.039.339.339,0,0,0-.179.052,4.248,4.248,0,0,1-.464.259c-.055.018-.182.06-.464.4a2.152,2.152,0,0,1-.559-.909c-.006-.039-.01-.071-.012-.1a.489.489,0,0,0,.211-.438A.588.588,0,0,0,13.2,4.767ZM7.694,6.3l.5-.1A.339.339,0,0,0,8.3,6.15a4.321,4.321,0,0,1,1.064-.534.689.689,0,0,1,.232.106c-.068.091-.171.215-.26.313l-.683.6a.339.339,0,0,0-.11.313l.11.622a.339.339,0,0,0,.13.212l.313.234.028.538a.339.339,0,0,0,.406.313l.7-.146a.343.343,0,0,0,.175-.1l1.131-1.187.573.1a7.264,7.264,0,0,1-.191,3.5c-.036.03-.059.043-.062.049a1.175,1.175,0,0,1-.118-.072,1.5,1.5,0,0,0-1.647-.081.632.632,0,0,0-.385.378.758.758,0,0,0,.149.632l.053.091-.312.168c-1.3.7-1.7.938-1.525,1.341a3.3,3.3,0,0,1,.245.857c-.339-.45-.715-.9-.88-.911a1.678,1.678,0,0,0-1.786,1.28c-.288.766-.406,2.223-.007,2.505a7.9,7.9,0,0,1,.873,1.693,10.359,10.359,0,0,1-2.01-2.1c-.185-.552-1.005-2.626-1.272-3.242A14.116,14.116,0,0,1,7.694,6.3Zm9.25,24.764A14.016,14.016,0,0,1,3,14.833c.328.818.737,1.865.864,2.247a10.505,10.505,0,0,0,2.283,2.459,1.8,1.8,0,0,0,.406.257l.17.086c.039.062.043.261-.162.866a1.813,1.813,0,0,0-.068.225,2.656,2.656,0,0,0,.154,1.734,7.177,7.177,0,0,0,1.147,1.756,3.166,3.166,0,0,0,.5.367.842.842,0,0,1,.433.524,11.272,11.272,0,0,1,.37,1.144,7.841,7.841,0,0,0,.718,1.882,3.212,3.212,0,0,0,1.354,1.253,5.288,5.288,0,0,0,1.549.433h.008a.3.3,0,0,0,.113.021.339.339,0,0,0,.293-.183.328.328,0,0,0,.029-.237.362.362,0,0,0-.176-.232.326.326,0,0,0-.074-.029,2.013,2.013,0,0,1-.72-1.376l.013-.148a26.4,26.4,0,0,1,.3-2.641,1.89,1.89,0,0,1,.367-.362,1.507,1.507,0,0,0,.6-.739,1.536,1.536,0,0,1,.211-.428,1.525,1.525,0,0,0,.319-.98c-.081-.766-.784-.982-1.3-1.141a4.305,4.305,0,0,1-.415-.144,1.347,1.347,0,0,1-.736-.75,2.848,2.848,0,0,0-.6-.833,5.613,5.613,0,0,0-1.844-.909c-.266-.095-.521-.185-.735-.279a.763.763,0,0,0-.756.028.592.592,0,0,1-.433.068,7.963,7.963,0,0,0-1.07-2,3.461,3.461,0,0,1,.43-2.238.844.844,0,0,1,.713-.382,9.923,9.923,0,0,1,1.1,1.471.339.339,0,0,0,.576.049,3.488,3.488,0,0,0-.15-2.213c.255-.183.863-.509,1.148-.662.622-.334.672-.362.7-.548a.948.948,0,0,0-.187-.657l-.033-.056c.558-.23.753-.1.961.04A.739.739,0,0,0,12.4,11.5c.6-.73.641-3.643.286-4.333a.478.478,0,0,0-.391-.29l-.823-.142a.339.339,0,0,0-.3.1L9.986,8.08l-.2.044-.016-.3a.339.339,0,0,0-.135-.253L9.3,7.321l-.053-.3.565-.5c.469-.506.5-.677.512-.745a.515.515,0,0,0-.14-.438,1.374,1.374,0,0,0-.673-.377A13.935,13.935,0,0,1,19.688,3.1a8.3,8.3,0,0,0-1.129.693.592.592,0,0,0-.068-.037.925.925,0,0,1-.185-.1,1.474,1.474,0,0,0-1.143-.167c-.339.038-.506.068-.647.1a6.452,6.452,0,0,1-1.135.1c-.431.016-.7,0-.892,0a1.743,1.743,0,0,0-1.1.236,2.8,2.8,0,0,1-.669.207c-.286.062-.556.12-.615.4s.2.474.309.554a3.333,3.333,0,0,0,.432.271.75.75,0,0,0-.128.68A3.335,3.335,0,0,0,13.754,7.6a.339.339,0,0,0,.224.085h.037a.339.339,0,0,0,.237-.135c.155-.213.347-.439.37-.464a3.447,3.447,0,0,0,.53-.278,2.247,2.247,0,0,0,.421-.056,2.866,2.866,0,0,0,.615-.293h0a8.251,8.251,0,0,0,.972,9.462,6.039,6.039,0,0,0-.631,1.041,6.5,6.5,0,0,0-.512,2.077,6.108,6.108,0,0,1-.416,1.8,2.228,2.228,0,0,1-.445.7.339.339,0,0,0,.332.559l3.589-.916,1.856,2.307-.2.948a2.727,2.727,0,0,0,.291,1.578l.062.148a3.415,3.415,0,0,1,.122.376,1.219,1.219,0,0,0,.859,1.035.772.772,0,0,0,.187.022,2.718,2.718,0,0,0,1.32-.563,2.675,2.675,0,0,0,.557-.592c.058-.077.117-.156.183-.234.135-.056.265-.115.4-.177a.339.339,0,0,0,.17-.181,1.746,1.746,0,0,0,.124-.756.967.967,0,0,1,.223-.165,1.326,1.326,0,0,0,.446-.386,1.557,1.557,0,0,0,.259-.994c0-.023,0-.052,0-.076l1.843-2.291,2.4.614A14.127,14.127,0,0,1,16.943,31.063ZM7.254,19.46a1.156,1.156,0,0,0,.668-.156.546.546,0,0,1,.071-.035.263.263,0,0,1,.095.029c.227.1.5.2.78.3a5.214,5.214,0,0,1,1.612.769,2.2,2.2,0,0,1,.464.653,2.006,2.006,0,0,0,1.064,1.054,4.659,4.659,0,0,0,.485.169c.538.166.794.276.825.566a1,1,0,0,1-.222.553,2.021,2.021,0,0,0-.3.643,1.873,1.873,0,0,1-.371.366,1.6,1.6,0,0,0-.584.7,23.585,23.585,0,0,0-.324,2.762l-.012.146a2.314,2.314,0,0,0,.322,1.173,3.753,3.753,0,0,1-.394-.135,2.54,2.54,0,0,1-1.045-.981,7.276,7.276,0,0,1-.649-1.722A12.232,12.232,0,0,0,9.347,25.1a1.49,1.49,0,0,0-.7-.844,2.46,2.46,0,0,1-.4-.293,6.7,6.7,0,0,1-.989-1.542,1.97,1.97,0,0,1-.111-1.286c.01-.04.031-.1.056-.171C7.338,20.563,7.577,19.859,7.254,19.46Z" transform="translate(-0.693 -0.693)" fill="#1f212b"/>
  </g>
</svg>