<svg xmlns="http://www.w3.org/2000/svg" width="24.803" height="15" viewBox="0 0 24.803 15">
  <g id="student" transform="translate(-12.294)">
    <path id="Path_4600" data-name="Path 4600" d="M57.234,13.57l.2.136c.079.053,2,1.294,6.95,1.294s6.87-1.241,6.949-1.294l.2-.136V5.883L74.28,4.97V9.281a1.677,1.677,0,0,0-1.217,1.61v2.283H76.41V10.891a1.677,1.677,0,0,0-1.218-1.61V4.666l1.6-.532-4.795-1.6L71.7,3.4l2.2.732L64.387,7.305,54.874,4.134,64.387.963l6.451,2.15.289-.866L64.387,0l-12.4,4.134,5.248,1.749ZM75.5,10.891v1.37H73.975v-1.37a.761.761,0,0,1,1.522,0Zm-17.349-4.7,6.24,2.08,6.24-2.08V9.765H69.5v.913h1.126v.913H68.649V12.5h1.978v.55a14.637,14.637,0,0,1-6.24,1.032,14.638,14.638,0,0,1-6.24-1.032Z" transform="translate(-39.692 0)" fill="#1f212b"/>
  </g>
</svg>